<svg width="128" height="140" viewBox="0 0 128 140" fill="none" xmlns="http://www.w3.org/2000/svg">
<path d="M74.52 118.35C74.43 118.84 74.35 119.34 74.26 119.83C74.17 120.31 74.92 120.41 75.01 119.94C75.08 119.56 75.14 119.17 75.21 118.79C75.58 118.99 75.98 119.17 76.41 119.27C77.22 119.47 78.08 119.45 78.88 119.24C78.87 119.74 78.85 120.24 78.84 120.75C78.83 121.23 79.58 121.34 79.59 120.86C79.61 120.23 79.62 119.6 79.64 118.97C80.48 118.58 81.2 117.95 81.59 117.05C82.45 115.08 81.53 112.92 79.91 111.67C79.88 111.65 79.86 111.64 79.83 111.62C79.87 110.11 79.91 108.6 79.95 107.1C80.47 107.49 80.96 107.93 81.44 108.35C81.8 108.67 82.27 108.07 81.9 107.75C81.32 107.23 80.67 106.68 79.98 106.21C80 105.35 80.03 104.48 80.05 103.62C80.06 103.14 79.32 103.03 79.3 103.51C79.28 104.26 79.26 105.01 79.24 105.76C78.57 105.39 77.86 105.15 77.12 105.09C77.2 104.32 77.28 103.56 77.34 102.79C77.38 102.31 76.63 102.2 76.59 102.68C76.52 103.49 76.43 104.29 76.35 105.1C76.16 105.12 75.98 105.13 75.79 105.18C74.41 105.53 73.15 106.84 73.36 108.36C73.55 109.78 74.56 110.34 75.71 110.72C75.41 112.98 75.06 115.23 74.67 117.48C73.66 116.62 72.91 115.37 72.38 114.11C72.19 113.66 71.49 113.94 71.68 114.39C72.31 115.88 73.22 117.38 74.52 118.35ZM79.81 112.63C80.75 113.49 81.49 114.63 81.14 115.91C80.87 116.88 80.37 117.58 79.66 118.02C79.71 116.23 79.76 114.43 79.81 112.63ZM77.03 106.02C77.58 105.99 78.12 106.06 78.57 106.25C78.8 106.35 79.01 106.47 79.22 106.6C79.18 108.13 79.14 109.66 79.1 111.19C78.26 110.81 77.37 110.67 76.53 110.35C76.71 108.91 76.88 107.47 77.03 106.02ZM76.26 106.14C76.12 107.44 75.97 108.73 75.8 110.02C72.74 108.23 74.29 106.58 76.26 106.14ZM76.45 110.94C77.19 111.15 77.94 111.34 78.53 111.69C78.71 111.79 78.89 111.91 79.07 112.04C79.01 114.15 78.96 116.26 78.9 118.36C78.64 118.44 78.37 118.51 78.07 118.54C77.02 118.66 76.12 118.42 75.34 117.96C75.77 115.63 76.14 113.29 76.45 110.94Z" fill="white"/>
<path d="M92.73 94.95C93.01 96.34 94.26 97.67 95.78 97.54C97.13 97.42 97.81 96.48 98.3 95.35C100.53 95.78 102.74 96.26 104.95 96.78C104.01 97.75 102.69 98.42 101.41 98.87C100.95 99.03 101.23 99.73 101.69 99.57C103.22 99.03 104.75 98.21 105.8 96.97C106.3 97.09 106.79 97.2 107.29 97.32C107.76 97.44 107.86 96.69 107.4 96.57C107.03 96.48 106.65 96.4 106.28 96.31C106.51 95.94 106.71 95.55 106.84 95.12C107.08 94.33 107.11 93.48 106.96 92.68C107.47 92.72 107.98 92.77 108.48 92.81C108.96 92.85 109.07 92.1 108.59 92.06C107.97 92.01 107.35 91.95 106.73 91.9C106.39 91.03 105.8 90.28 104.91 89.83C102.99 88.87 100.78 89.66 99.44 91.22C99.42 91.24 99.41 91.26 99.4 91.28C97.89 91.15 96.39 91.02 94.88 90.89C95.31 90.39 95.79 89.92 96.24 89.47C96.58 89.13 95.98 88.67 95.64 89.01C95.1 89.56 94.52 90.16 94.01 90.82C93.14 90.75 92.27 90.67 91.4 90.6C90.92 90.56 90.81 91.31 91.29 91.35C92.03 91.41 92.77 91.48 93.51 91.54C93.11 92.19 92.82 92.88 92.71 93.61C91.94 93.49 91.18 93.36 90.41 93.25C89.93 93.18 89.82 93.93 90.3 94C91.09 94.11 91.88 94.25 92.68 94.37C92.69 94.56 92.69 94.75 92.73 94.95ZM105.81 91.83C103.99 91.68 102.18 91.52 100.36 91.37C102.12 89.79 104.76 89.98 105.81 91.83ZM99.72 92.06C101.85 92.24 103.98 92.42 106.12 92.61C106.21 92.95 106.26 93.32 106.26 93.74C106.24 94.67 105.95 95.46 105.49 96.13C103.2 95.59 100.9 95.08 98.59 94.63C98.94 93.7 99.24 92.75 99.72 92.06ZM93.5 93.51C93.77 92.9 94.03 92.28 94.3 91.67C94.31 91.65 94.33 91.63 94.35 91.6C95.88 91.73 97.41 91.86 98.94 91.99C98.53 92.81 98.34 93.72 97.97 94.51C96.48 94.23 94.99 93.96 93.49 93.72C93.49 93.65 93.49 93.59 93.5 93.51ZM97.56 95.21C97.56 95.22 97.56 95.22 97.56 95.21C94.94 96.8 93.58 96.56 93.47 94.49C94.84 94.71 96.2 94.96 97.56 95.21Z" fill="white"/>
<path d="M127.7 91.84C115.87 73.37 104.05 54.9 92.22 36.43C88.21 30.16 84.13 23.16 77.58 19.2C74.6 17.4 71.3 16.59 67.87 16.19C62.81 15.6 55.96 16.04 52.96 11.07C53.66 10.56 54.35 10.06 55.05 9.55002C55.21 9.43002 55.33 9.28002 55.41 9.13002C55.64 8.74002 55.67 8.23002 55.28 7.80002C53.05 5.37002 50.99 2.78002 48.76 0.360023C48.34 -0.0999767 47.81 -0.0599767 47.42 0.210023C47.34 0.250023 47.26 0.300023 47.19 0.360023C31.95 12.72 15.62 23.66 0.389976 36.04C0.209976 36.18 0.109976 36.34 0.0599763 36.5C-0.0400237 36.76 -0.0200237 37.07 0.219976 37.38C1.93998 39.65 3.45998 42.07 5.17998 44.35C5.23998 44.42 5.29998 44.49 5.35998 44.54C5.65998 44.94 6.16998 45.13 6.69998 44.75C7.01998 44.52 7.33998 44.29 7.65998 44.05C13.81 51.01 6.93998 61.9 8.93998 70.17C10.85 78.08 16.97 84.31 22.16 90.25C36.37 106.53 50.57 122.81 64.78 139.08C65.25 139.62 65.84 139.67 66.32 139.44C92.53 134.88 116.85 119.78 126.41 94.04C127.43 94.01 128.41 92.95 127.7 91.84ZM78.17 98.58C77.2 98.91 76.2 99.09 75.19 99.16C75.17 99.16 75.15 99.16 75.13 99.16C72.15 99.33 69.11 98.42 66.68 96.71C68.18 95.58 69.68 94.46 71.19 93.33C71.79 93.81 72.47 94.19 73.25 94.38C74.06 94.58 74.92 94.56 75.72 94.35C75.71 94.85 75.69 95.35 75.68 95.86C75.67 96.34 76.41 96.45 76.43 95.97C76.45 95.34 76.46 94.71 76.48 94.08C77.32 93.69 78.04 93.06 78.43 92.16C79.02 90.81 78.76 89.37 78.02 88.2C80.09 86.65 82.16 85.1 84.22 83.55C86.68 89.55 84.79 96.36 78.17 98.58ZM63.77 99.28C64.95 106.5 59.93 114.7 52.08 114.48C49.2 114.4 46.94 113.53 45.25 112.16C44.52 111.33 43.8 110.5 43.07 109.67C40.06 104.69 41.42 97.08 46.67 93.01C48.29 95.17 49.91 97.33 51.52 99.48C50.05 99.35 48.58 99.23 47.12 99.1C47.55 98.6 48.03 98.13 48.48 97.68C48.82 97.34 48.22 96.88 47.88 97.22C47.34 97.77 46.76 98.37 46.25 99.03C45.38 98.96 44.51 98.88 43.64 98.81C43.16 98.77 43.05 99.52 43.53 99.56C44.27 99.62 45.01 99.69 45.75 99.75C45.35 100.4 45.06 101.09 44.95 101.82C44.18 101.7 43.42 101.57 42.65 101.46C42.17 101.39 42.06 102.14 42.54 102.21C43.33 102.32 44.12 102.46 44.92 102.58C44.93 102.77 44.93 102.97 44.97 103.16C45.25 104.55 46.5 105.88 48.02 105.75C49.37 105.63 50.05 104.69 50.54 103.56C52.77 103.99 54.98 104.47 57.19 104.99C56.25 105.96 54.93 106.63 53.65 107.08C53.19 107.24 53.47 107.94 53.93 107.78C55.46 107.24 56.99 106.42 58.04 105.18C58.54 105.3 59.03 105.41 59.53 105.53C60 105.65 60.1 104.9 59.64 104.78C59.27 104.69 58.89 104.61 58.52 104.52C58.75 104.15 58.95 103.76 59.08 103.33C59.19 102.98 59.24 102.62 59.27 102.26C60.75 101.15 62.22 100.05 63.69 98.94C63.72 99.06 63.75 99.17 63.77 99.28ZM36.9 72.15C35.61 71.35 35.25 70.53 35.87 69.68C36.52 70.27 37.16 70.88 37.8 71.48C37.5 71.7 37.2 71.93 36.9 72.15ZM38.4 71.02C37.73 70.38 37.05 69.75 36.37 69.12C36.81 68.46 37.45 68.03 38.17 67.73C38.93 68.32 39.68 68.91 40.44 69.49C39.76 70.01 39.08 70.51 38.4 71.02ZM41.06 69.03C40.38 68.5 39.69 67.97 39.01 67.43C39.63 67.25 40.26 67.12 40.84 67C41.31 66.9 41.23 66.15 40.75 66.25C39.97 66.42 39.12 66.62 38.32 66.9C37.62 66.36 36.93 65.82 36.23 65.28C35.85 64.98 35.38 65.58 35.77 65.88C36.35 66.33 36.93 66.78 37.51 67.24C36.82 67.56 36.2 67.99 35.71 68.55C35.13 68.02 34.55 67.49 33.96 66.97C33.59 66.65 33.13 67.25 33.5 67.57C34.1 68.1 34.68 68.63 35.27 69.17C35.17 69.34 35.06 69.51 34.98 69.71C34.52 70.85 34.73 72.27 35.62 73.12C35.23 73.41 34.85 73.7 34.46 73.99C33.87 74.43 33.39 75.34 33.92 76.04C36.14 79 38.36 81.95 40.57 84.91C38.36 84.91 36.16 84.25 34.23 82.72C24.46 74.99 32.56 61.39 43.46 62.03C45.13 62.3 46.71 62.9 48.12 63.74C45.78 65.49 43.42 67.26 41.06 69.03ZM37.32 75.56C49.99 66.06 62.66 56.56 75.33 47.05C81.64 55.46 87.95 63.88 94.26 72.29C81.59 81.79 68.92 91.29 56.25 100.8C49.94 92.39 43.63 83.98 37.32 75.56ZM80.43 44.15C81.17 44.36 81.92 44.55 82.51 44.9C82.69 45 82.87 45.12 83.05 45.25C82.99 47.36 82.94 49.47 82.88 51.57C82.76 51.61 82.62 51.63 82.49 51.66C81.6 50.48 80.71 49.29 79.82 48.11C80.04 46.78 80.25 45.47 80.43 44.15ZM79.78 43.23C76.72 41.44 78.27 39.79 80.24 39.35C80.1 40.64 79.94 41.93 79.78 43.23ZM83.07 44.4C82.23 44.02 81.34 43.88 80.5 43.56C80.69 42.12 80.86 40.68 81.01 39.23C81.56 39.2 82.1 39.26 82.55 39.46C82.78 39.56 82.99 39.68 83.2 39.81C83.15 41.33 83.11 42.87 83.07 44.4ZM94.99 75.47C95.27 75.26 95.56 75.05 95.84 74.83C95.6 75.15 95.32 75.42 94.99 75.62C94.99 75.58 94.99 75.53 94.99 75.47ZM94.45 67.59C93.71 66.6 92.97 65.62 92.23 64.63C92.27 64.29 92.31 63.96 92.35 63.62C92.9 63.59 93.44 63.66 93.89 63.85C94.12 63.95 94.33 64.07 94.54 64.2C94.51 65.33 94.48 66.46 94.45 67.59ZM91.58 63.76C91.58 63.75 91.57 63.75 91.57 63.74C91.58 63.74 91.58 63.74 91.58 63.74C91.58 63.75 91.58 63.76 91.58 63.76ZM76.6 89.27C76.88 89.06 77.16 88.85 77.43 88.65C77.93 89.35 78.21 90.16 77.97 91.04C77.7 92.02 77.2 92.71 76.49 93.15C76.53 91.85 76.56 90.56 76.6 89.27ZM75.73 93.48C75.47 93.56 75.2 93.63 74.9 93.66C73.69 93.8 72.68 93.45 71.83 92.84C73.16 91.84 74.49 90.84 75.83 89.84C75.8 91.06 75.77 92.27 75.73 93.48ZM45.74 101.94C45.75 101.87 45.75 101.8 45.75 101.72C46.02 101.11 46.28 100.49 46.55 99.88C46.56 99.86 46.58 99.84 46.6 99.81C48.13 99.94 49.66 100.07 51.19 100.2C50.78 101.02 50.59 101.92 50.22 102.72C48.73 102.45 47.23 102.19 45.74 101.94ZM49.81 103.43C47.19 105.02 45.83 104.78 45.72 102.71C47.09 102.93 48.45 103.17 49.81 103.43ZM51.97 100.28C52.03 100.28 52.08 100.29 52.14 100.29C52.98 101.41 53.82 102.52 54.65 103.64C53.38 103.36 52.11 103.09 50.84 102.85C51.19 101.92 51.49 100.96 51.97 100.28ZM58.36 102.95C58.23 103.46 58.02 103.93 57.73 104.35C57.41 104.27 57.1 104.21 56.78 104.13C57.31 103.74 57.84 103.34 58.36 102.95ZM65.96 98.94C67.15 99.68 68.44 100.26 69.78 100.67C68.33 101.45 67.06 102.48 66.01 103.69C66.23 102.11 66.22 100.5 65.96 98.94ZM86.98 107.51C90.05 113.71 88.31 121.12 81.34 123.46C74.39 125.79 65.66 121.1 64.89 113.57C63.53 100.25 80.68 98.17 86.98 107.51ZM95.69 83.92C102.01 81.2 110.29 83.53 111.52 91.07C112.7 98.29 107.68 106.49 99.83 106.27C86.88 105.91 86.18 89.6 95.69 83.92ZM87.24 91.29C87.78 88.34 87.38 85.14 86.08 82.28C87.94 83.15 89.97 83.7 92.03 83.83C89.77 85.81 88.07 88.43 87.24 91.29ZM96.66 81.07C93.85 82.01 90.75 81.79 88 80.71C89.65 79.47 91.3 78.24 92.95 77C93.37 77 93.8 76.95 94.21 76.84C94.2 77.34 94.18 77.84 94.17 78.35C94.16 78.83 94.9 78.94 94.92 78.46C94.94 77.83 94.95 77.2 94.97 76.58C95.81 76.19 96.53 75.56 96.92 74.66C97.04 74.39 97.12 74.11 97.17 73.84C97.73 73.38 98.16 72.52 97.65 71.84C96.83 70.75 96.01 69.65 95.19 68.56C95.22 67.28 95.26 65.99 95.29 64.71C95.81 65.1 96.3 65.54 96.78 65.97C97.14 66.29 97.61 65.69 97.24 65.37C96.66 64.85 96.01 64.3 95.32 63.83C95.34 62.97 95.37 62.1 95.39 61.24C95.4 60.76 94.66 60.65 94.64 61.13C94.62 61.88 94.6 62.63 94.58 63.37C93.91 63 93.2 62.76 92.46 62.7C92.54 61.93 92.62 61.17 92.68 60.4C92.72 59.92 91.97 59.81 91.93 60.29C91.86 61.1 91.77 61.9 91.69 62.71C91.5 62.73 91.32 62.74 91.13 62.79C91.06 62.81 90.98 62.84 90.91 62.87C90.1 61.8 89.3 60.72 88.49 59.65C93.38 58.68 99.18 60.49 102.31 65.13C105.37 71.32 103.63 78.73 96.66 81.07ZM86.04 56.38C85.22 55.29 84.41 54.21 83.59 53.12C83.6 52.81 83.61 52.49 83.61 52.18C84.45 51.79 85.17 51.16 85.56 50.26C86.42 48.29 85.5 46.13 83.88 44.88C83.85 44.86 83.83 44.85 83.8 44.83C83.84 43.32 83.88 41.81 83.92 40.31C84.44 40.7 84.93 41.14 85.41 41.57C85.77 41.89 86.24 41.29 85.87 40.97C85.29 40.45 84.64 39.9 83.95 39.43C83.97 38.57 84 37.7 84.02 36.84C84.03 36.36 83.29 36.25 83.27 36.73C83.25 37.48 83.23 38.23 83.21 38.97C82.54 38.6 81.83 38.36 81.09 38.3C81.17 37.53 81.25 36.77 81.31 36C81.35 35.52 80.6 35.41 80.56 35.89C80.49 36.7 80.4 37.5 80.32 38.31C80.13 38.33 79.95 38.34 79.76 38.39C78.38 38.74 77.12 40.05 77.33 41.57C77.52 42.99 78.53 43.55 79.68 43.93C79.53 45.04 79.35 46.14 79.17 47.25C78.41 46.24 77.66 45.23 76.9 44.22C76.46 43.63 75.55 43.15 74.85 43.68C72.92 45.13 70.99 46.57 69.06 48.02C68.97 47.62 68.89 47.21 68.85 46.78C67.49 33.45 84.64 31.37 90.94 40.72C93.91 46.69 92.39 53.77 86.04 56.38ZM83.64 51.23C83.69 49.43 83.74 47.64 83.78 45.84C84.72 46.7 85.46 47.84 85.11 49.12C84.85 50.1 84.35 50.79 83.64 51.23ZM6.37998 42.24C5.12998 40.52 3.94998 38.74 2.68998 37.02C17.41 25.14 33.1 14.53 47.83 2.65002C49.53 4.54002 51.15 6.50002 52.84 8.40002C37.38 19.72 21.84 30.93 6.37998 42.24ZM11.74 61.26C12.79 54.64 14.7 47.86 10.07 42.29C23.54 32.45 37.05 22.66 50.53 12.82C54.14 18.46 60.96 18.38 67.01 19.09C76.96 20.26 82.31 26.78 87.3 34.34C83.99 32.45 80.04 31.75 76.24 32.85C69.22 34.88 65.08 42.52 67.15 49.46C61.44 53.74 55.73 58.03 50.02 62.31C48.26 61.12 46.24 60.27 44.1 59.88C44.01 59.85 43.9 59.82 43.79 59.81C43.68 59.79 43.58 59.79 43.49 59.8C37.45 59.56 31.33 62.7 28.79 68.38C25.6 75.51 29.47 84.19 36.91 86.55C38.65 87.1 40.44 87.22 42.19 87.03C43.24 88.42 44.28 89.82 45.33 91.21C41.03 94.38 38.38 99.7 39.04 105.05C34.12 99.41 29.2 93.77 24.28 88.14C17.43 80.29 9.96998 72.47 11.74 61.26ZM123.52 93.23C114.44 117.72 91.17 131.85 66.39 136.4C60.53 129.68 54.66 122.96 48.8 116.24C51.1 116.88 53.58 116.94 55.99 116.23C58.71 115.43 60.97 113.75 62.67 111.61C62.54 113.36 62.75 115.16 63.36 116.89C66.05 124.46 75.47 128.07 82.83 125.4C90.56 122.59 92.48 113.42 88.98 106.55C88.96 106.51 88.92 106.48 88.9 106.45C88.88 106.4 88.87 106.35 88.84 106.29C86.93 103.4 84.08 101.16 80.86 100C83.99 98.47 86 95.8 86.91 92.72C86.56 94.62 86.59 96.6 87.1 98.55C88.97 105.71 96.65 110.09 103.74 108.01C111.41 105.75 115.51 96.61 113.35 89.14C111.8 83.77 107.12 80.95 102.08 80.61C106.42 76.6 107.1 69.64 104.3 64.15C104.28 64.11 104.24 64.08 104.22 64.05C104.2 64 104.19 63.95 104.16 63.89C101.1 59.25 95.6 56.27 90.05 56.79C93.4 54.17 94.88 49.94 94.59 45.69C104.54 61.23 114.49 76.77 124.44 92.31C124.05 92.45 123.7 92.74 123.52 93.23Z" fill="white"/>
<path d="M56.79 86.81C55.68 85.25 54.95 83.99 54.6 83.02C54.69 82.89 54.8 82.78 54.93 82.68C55.04 82.6 55.23 82.49 55.52 82.36C55.8 82.23 56.01 82.11 56.14 81.99C56.3 82.21 56.51 82.54 56.77 82.98C57.03 83.43 57.23 83.75 57.38 83.94C57.47 84.06 57.6 84.25 57.78 84.52C57.96 84.78 58.09 84.98 58.18 85.1C58.64 85.71 59.13 85.98 59.67 85.91C59.8 85.89 60 85.78 60.28 85.57C60.36 85.51 60.4 85.43 60.42 85.32C60.43 85.21 60.41 85.12 60.36 85.05C60.13 84.79 59.9 84.5 59.67 84.19C58.94 83.22 58.02 81.73 56.9 79.72C55.73 77.6 54.82 76.09 54.18 75.19C53.91 74.97 53.53 75.09 53.04 75.53C52.83 75.69 52.84 75.95 53.06 76.33C54.12 78.13 54.91 79.65 55.44 80.88C55.38 80.92 55.21 81.07 54.94 81.3C54.73 81.47 54.56 81.59 54.42 81.67C54.23 81.78 54.04 81.84 53.85 81.84C53.66 81.59 53.43 81.21 53.14 80.69C52.85 80.17 52.62 79.8 52.46 79.58C52.23 79.27 51.98 79.02 51.71 78.83C51.57 78.72 51.38 78.72 51.17 78.82C50.9 78.94 50.72 78.99 50.6 78.97C50.6 79.01 50.54 79.11 50.41 79.26C50.28 79.4 50.25 79.53 50.33 79.64C50.93 80.42 51.64 81.53 52.47 82.99C53.46 84.73 54.15 85.88 54.52 86.44C54.54 86.47 54.6 86.56 54.68 86.7C54.77 86.85 54.84 86.96 54.9 87.04C55.17 87.4 55.46 87.55 55.78 87.5C56.22 87.43 56.56 87.2 56.79 86.81Z" fill="white"/>
<path d="M58.72 79.54C59.22 80.21 59.82 80.6 60.52 80.73C61.56 80.91 62.36 80.79 62.93 80.37C63.06 80.27 63.18 80.16 63.28 80.04C64.17 78.99 64.41 77.58 64 75.82C63.94 75.53 63.8 75.24 63.6 74.98C63.24 74.5 62.64 74.06 61.79 73.66C61.31 73.43 60.77 73.42 60.17 73.62C59.41 73.88 58.92 74 58.69 73.98C58.46 73.97 58.27 74.02 58.11 74.14C57.83 74.35 57.65 74.72 57.58 75.26C57.51 75.72 57.51 76.2 57.59 76.7C57.8 77.85 58.17 78.8 58.72 79.54ZM59.26 76.65C59.26 76.62 59.28 76.59 59.31 76.57C59.35 76.54 59.47 76.52 59.66 76.51C59.86 76.5 59.98 76.46 60.03 76.38C60.11 76.26 60.16 76.01 60.19 75.63C60.22 75.3 60.29 75.09 60.41 75C60.45 74.97 60.5 74.95 60.57 74.93C60.99 74.83 61.51 75.12 62.12 75.79C62.5 76.2 62.7 76.81 62.7 77.62C62.7 78.47 62.49 79.06 62.05 79.39C61.86 79.53 61.47 79.5 60.89 79.3C60.47 79.15 60.1 78.86 59.78 78.44C59.3 77.8 59.13 77.21 59.26 76.65Z" fill="white"/>
<path d="M62.67 72.57C63.39 73.82 64.02 74.8 64.56 75.53C65.51 76.79 66.52 77.75 67.6 78.4C68.24 78.79 68.78 78.83 69.24 78.5C69.75 78.13 70.01 77.54 70 76.72C70 75.43 69.73 74.21 69.2 73.04C69.02 72.66 68.58 71.52 67.85 69.63C67.31 68.22 66.81 67.14 66.36 66.4C66.05 66.29 65.72 66.37 65.37 66.63C65.1 66.83 65 67.09 65.07 67.41C65.11 67.61 65.25 67.92 65.49 68.35C65.73 68.77 65.87 69.08 65.9 69.27C66.03 69.94 66.33 70.79 66.8 71.81C67.43 73.14 67.8 73.97 67.91 74.28C68.25 75.23 68.39 76.1 68.32 76.88C67.72 76.41 67.33 76.08 67.16 75.89C66.82 75.5 66.47 75.06 66.1 74.57C65.75 74.1 65.2 73.32 64.46 72.23C63.76 71.22 63.22 70.46 62.83 69.96C62.68 69.98 62.52 70.01 62.37 70.04C62.21 70.07 62.09 70.12 61.99 70.2C61.51 70.56 61.51 71.04 61.97 71.66C62.5 72.38 62.74 72.68 62.67 72.57Z" fill="white"/>
<path d="M67.76 67.53C68.31 68.27 69.37 69.01 70.93 69.75C72.49 70.5 73.51 71.19 74 71.84C74.34 72.3 74.57 72.82 74.69 73.42C74.72 73.57 74.67 73.7 74.53 73.82C74.39 73.94 74.32 74.04 74.31 74.12C74.29 74.4 74.32 74.6 74.41 74.72C74.56 74.92 74.83 74.97 75.23 74.88C75.33 74.85 75.43 74.8 75.52 74.73C75.75 74.56 75.93 74.26 76.06 73.84C76.22 73.3 76.27 72.92 76.24 72.68C76.13 71.97 75.87 71.35 75.46 70.8C74.96 70.13 74.12 69.5 72.92 68.91C71.13 68.02 70.18 67.53 70.05 67.45C69.78 67.27 69.53 67.03 69.31 66.75C68.73 65.98 68.51 65.12 68.64 64.18C68.65 64.08 68.69 64 68.75 63.96C68.76 63.95 68.85 63.92 69.02 63.85C69.13 63.81 69.21 63.75 69.26 63.64C69.44 63.27 69.45 62.99 69.3 62.8C69.22 62.69 69.09 62.62 68.91 62.58C68.53 62.51 68.13 62.63 67.71 62.94C67.49 63.1 67.31 63.33 67.16 63.61C66.84 64.22 66.76 64.9 66.9 65.65C67.02 66.29 67.3 66.92 67.76 67.53Z" fill="white"/>
<path d="M73.11 64.91C73.7 65.82 74.01 66.32 74.05 66.41C74.09 66.5 74.07 66.64 73.98 66.83C73.89 67.01 73.88 67.15 73.93 67.25C74.04 67.45 74.3 67.54 74.72 67.52C75.14 68.27 75.72 69.05 76.46 69.85C76.71 70.13 77.04 70.3 77.45 70.36C77.86 70.43 78.23 70.39 78.56 70.25C79.62 69.81 80.73 69.13 81.9 68.18C82.05 68.05 82.12 67.89 82.1 67.69C82.08 67.49 82 67.33 81.85 67.19C81.4 66.78 81.06 66.71 80.83 66.98C80.77 67.02 80.72 67.12 80.69 67.26C80.66 67.4 80.6 67.5 80.52 67.56C79.41 68.47 78.49 68.94 77.78 68.96C77.57 68.85 77.36 68.65 77.15 68.36C76.83 67.93 76.49 67.28 76.13 66.4C76.33 66.08 76.65 65.74 77.11 65.38C77.66 64.95 78.02 64.64 78.19 64.43C78.32 64.35 78.39 64.24 78.4 64.09C78.42 63.87 78.44 63.75 78.45 63.72C78.49 63.63 78.48 63.55 78.43 63.48C78.39 63.42 78.22 63.34 77.93 63.25C77.64 63.28 77.36 63.4 77.08 63.61C76.93 63.72 76.71 63.92 76.44 64.21C76.16 64.5 75.94 64.7 75.8 64.81C75.59 64.97 75.38 65.07 75.18 65.13C74.55 64.21 74.18 63.58 74.08 63.26C74.33 62.83 74.75 62.26 75.31 61.52C75.88 60.78 76.29 60.2 76.54 59.78C76.57 59.68 76.56 59.59 76.5 59.51C76.46 59.46 76.38 59.4 76.26 59.32C76.14 59.24 76.06 59.19 76.02 59.15C75.51 59.21 75.12 59.34 74.85 59.54C74.78 59.59 74.73 59.64 74.68 59.69C74.28 60.17 73.89 60.66 73.51 61.15C73.06 61.72 72.72 62.24 72.49 62.71C72.27 63.08 72.05 63.45 71.83 63.81C71.62 64.23 71.62 64.59 71.82 64.89C72.04 65.21 72.47 65.22 73.11 64.91Z" fill="white"/>
<path d="M75 26.6C75.49 26.9 75.93 26.13 75.45 25.84C67.9 21.19 58.25 23.76 50.95 18.6C50.48 18.27 50.04 19.04 50.5 19.36C57.82 24.54 67.46 21.96 75 26.6Z" fill="white"/>
<path d="M69.24 27.01C66.61 26.21 63.98 25.41 61.35 24.6C60.8 24.43 60.57 25.29 61.11 25.45C63.74 26.25 66.37 27.05 69 27.86C69.55 28.03 69.78 27.17 69.24 27.01Z" fill="white"/>
<path d="M65.0299 28.55C64.1099 28.3 63.1999 28.05 62.2799 27.8C61.7299 27.65 61.4899 28.5 62.0399 28.65C62.9599 28.9 63.8699 29.15 64.7899 29.4C65.3499 29.56 65.5799 28.7 65.0299 28.55Z" fill="white"/>
</svg>
